<svg width="102" height="72" viewBox="0 0 102 72" fill="none" xmlns="http://www.w3.org/2000/svg">
<g clip-path="url(#clip0_205_149)">
<path d="M37.6503 60.9998C37.6503 60.9998 41.077 60.9998 42.5109 60.9692C44.2121 60.9283 45.9547 60.2544 47.2549 58.1611C49.6026 54.3727 49.6026 48.2333 47.2549 44.4449C46.0811 42.5533 43.8209 41.6062 42.2825 41.6062H37.6965C35.3488 45.392 35.3026 57.214 37.6503 60.9998Z" fill="#263238"/>
<path d="M37.6965 61.0023C41.0159 61.0023 43.7067 56.6604 43.7067 51.3043C43.7067 45.9482 41.0159 41.6062 37.6965 41.6062C34.3772 41.6062 31.6864 45.9482 31.6864 51.3043C31.6864 56.6604 34.3772 61.0023 37.6965 61.0023Z" fill="#263238"/>
<path opacity="0.4" d="M37.6966 57.2498C39.7314 57.2498 41.3809 54.5879 41.3809 51.3044C41.3809 48.0208 39.7314 45.3589 37.6966 45.3589C35.6617 45.3589 34.0122 48.0208 34.0122 51.3044C34.0122 54.5879 35.6617 57.2498 37.6966 57.2498Z" fill="white"/>
<g opacity="0.3">
<path d="M37.4025 46.4284V49.4765C37.4025 49.7318 37.5337 49.9513 37.6965 49.9513C37.8569 49.9513 37.9906 49.7394 37.9906 49.4765V46.4284C37.9906 46.1732 37.8569 45.9536 37.6965 45.9536C37.5337 45.9536 37.4025 46.168 37.4025 46.4284Z" fill="white"/>
</g>
<g opacity="0.3">
<path d="M37.4025 53.1272V56.1752C37.4025 56.4305 37.5337 56.65 37.6965 56.65C37.8569 56.65 37.9906 56.4381 37.9906 56.1752V53.1272C37.9906 52.8719 37.8569 52.6523 37.6965 52.6523C37.5337 52.6523 37.4025 52.8668 37.4025 53.1272Z" fill="white"/>
</g>
<g opacity="0.3">
<path d="M36.5714 50.8041C36.7123 50.9318 36.8922 50.8526 36.9699 50.6254C37.011 50.5177 37.023 50.4002 37.0045 50.2858C36.9861 50.1714 36.938 50.0645 36.8654 49.977L35.2274 48.4453C35.0865 48.3126 34.9066 48.3917 34.8264 48.6189C34.7863 48.7272 34.7752 48.8449 34.7945 48.9593C34.8138 49.0736 34.8627 49.1802 34.9358 49.2673L36.5714 50.799V50.8041Z" fill="white"/>
</g>
<g opacity="0.3">
<path d="M40.5692 53.9644C40.6094 53.8566 40.6205 53.7392 40.6012 53.6252C40.5819 53.5113 40.533 53.4051 40.4599 53.3185L38.8267 51.7868C38.6857 51.6541 38.5035 51.7307 38.4208 51.9579C38.3799 52.0664 38.3685 52.1847 38.3878 52.2996C38.4071 52.4145 38.4564 52.5216 38.5302 52.6088L40.1634 54.1405C40.3068 54.2707 40.4866 54.1916 40.5692 53.9644Z" fill="white"/>
</g>
<g opacity="0.3">
<path d="M34.8262 53.9772C34.9064 54.2044 35.0863 54.2835 35.2272 54.1508L36.8653 52.6191C36.938 52.5312 36.9862 52.4239 37.0047 52.3091C37.0231 52.1942 37.011 52.0762 36.9698 51.9681C36.8896 51.7409 36.7097 51.6644 36.5688 51.7946L34.9332 53.3262C34.8597 53.4132 34.8108 53.5199 34.7919 53.6345C34.7731 53.749 34.7849 53.8668 34.8262 53.9746V53.9772Z" fill="white"/>
</g>
<g opacity="0.3">
<path d="M38.4231 50.6304C38.5057 50.8576 38.6856 50.9317 38.8265 50.8015L40.4597 49.2698C40.5328 49.1826 40.5817 49.0761 40.601 48.9617C40.6203 48.8473 40.6092 48.7296 40.5691 48.6214C40.4864 48.3942 40.3066 48.315 40.1632 48.4478L38.53 49.9795C38.4573 50.0669 38.4089 50.1736 38.3901 50.2879C38.3712 50.4023 38.3826 50.5199 38.4231 50.6279V50.6304Z" fill="white"/>
</g>
<path d="M37.6965 50.5027C37.4219 50.5027 37.2104 50.8601 37.2104 51.3017C37.2104 51.7433 37.4316 52.1007 37.6965 52.1007C37.9614 52.1007 38.1826 51.7433 38.1826 51.3017C38.1826 50.8601 37.9687 50.5027 37.6965 50.5027Z" fill="#263238"/>
<path opacity="0.3" d="M37.6965 61.0023C41.0159 61.0023 43.7067 56.6604 43.7067 51.3043C43.7067 45.9482 41.0159 41.6062 37.6965 41.6062C34.3772 41.6062 31.6864 45.9482 31.6864 51.3043C31.6864 56.6604 34.3772 61.0023 37.6965 61.0023Z" fill="#263238"/>
<path d="M55.9893 55.5037C55.9893 55.5037 57.2823 40.4856 48.363 40.4856C48.363 40.4856 43.4805 40.5443 42.6931 47.5594C41.9057 54.5745 42.4136 55.5063 42.4136 55.5063L55.9893 55.5037Z" fill="#0E53FF"/>
<path opacity="0.3" d="M55.9893 55.5037C55.9893 55.5037 57.2823 40.4856 48.363 40.4856C48.363 40.4856 43.4805 40.5443 42.6931 47.5594C41.9057 54.5745 42.4136 55.5063 42.4136 55.5063L55.9893 55.5037Z" fill="#263238"/>
<path d="M15.1627 56.1037C15.1627 56.1037 16.582 40.0823 7.25203 38.1729C7.25203 38.1729 1.99042 38.2418 1.14224 46.2933C0.294063 54.3448 3.98084 55.7386 3.98084 55.7386L15.1627 56.1037Z" fill="#0E53FF"/>
<path opacity="0.3" d="M15.1627 56.1037C15.1627 56.1037 16.582 40.0823 7.25203 38.1729C7.25203 38.1729 1.99042 38.2418 1.14224 46.2933C0.294063 54.3448 3.98084 55.7386 3.98084 55.7386L15.1627 56.1037Z" fill="#263238"/>
<path d="M6.99444 60.5608C6.99444 60.5608 10.1757 60.5608 11.5051 60.5302C13.0921 60.4919 14.7009 59.818 15.9064 57.7221C18.0937 53.9338 18.0937 47.7943 15.9064 44.0085C14.8176 42.1143 12.7178 41.1672 11.2888 41.1672H7.0479C4.86063 44.9556 4.81688 56.775 6.99444 60.5608Z" fill="#263238"/>
<path d="M7.03824 60.5634C10.12 60.5634 12.6182 56.2214 12.6182 50.8653C12.6182 45.5092 10.12 41.1672 7.03824 41.1672C3.9565 41.1672 1.45825 45.5092 1.45825 50.8653C1.45825 56.2214 3.9565 60.5634 7.03824 60.5634Z" fill="#263238"/>
<path opacity="0.4" d="M4.61761 55.0697C5.95428 57.3902 8.11969 57.3902 9.45636 55.0697C10.793 52.7492 10.793 48.9838 9.45636 46.6608C8.11969 44.3377 5.95428 44.3403 4.61761 46.6608C3.28095 48.9813 3.28095 52.739 4.61761 55.0697Z" fill="white"/>
<g opacity="0.3">
<path d="M6.76355 45.9919V49.0374C6.76355 49.2927 6.88506 49.5122 7.03817 49.5122C7.18885 49.5122 7.3128 49.3003 7.3128 49.0374V45.9919C7.3128 45.7366 7.18885 45.5171 7.03817 45.5171C6.88506 45.5171 6.76355 45.729 6.76355 45.9919Z" fill="white"/>
</g>
<g opacity="0.3">
<path d="M6.76355 52.6906V55.7361C6.76355 55.9914 6.88506 56.2109 7.03817 56.2109C7.18885 56.2109 7.3128 55.9991 7.3128 55.7361V52.6906C7.3128 52.4354 7.18885 52.2158 7.03817 52.2158C6.88506 52.2286 6.76355 52.4277 6.76355 52.6906Z" fill="white"/>
</g>
<g opacity="0.3">
<path d="M5.99318 50.3649C6.12442 50.4951 6.28968 50.4134 6.36502 50.1862C6.40291 50.0783 6.41364 49.9619 6.39619 49.8483C6.37873 49.7347 6.33368 49.6278 6.26537 49.5378L4.74643 48.0061C4.61763 47.8759 4.44993 47.9525 4.37459 48.1823C4.33647 48.2902 4.3256 48.4066 4.34307 48.5203C4.36053 48.6339 4.40572 48.7409 4.47424 48.8307L5.99318 50.3624V50.3649Z" fill="white"/>
</g>
<g opacity="0.3">
<path d="M9.70417 53.5253C9.74159 53.4172 9.75208 53.3009 9.73464 53.1874C9.7172 53.0739 9.67241 52.967 9.60453 52.8769L8.08559 51.3452C7.95435 51.2124 7.78666 51.289 7.71132 51.5162C7.67253 51.6249 7.66132 51.7422 7.67879 51.8568C7.69626 51.9714 7.74181 52.0792 7.81096 52.1697L9.32747 53.7014C9.45871 53.8316 9.62883 53.7601 9.70417 53.5253Z" fill="white"/>
</g>
<g opacity="0.3">
<path d="M4.37461 53.538C4.44994 53.7652 4.61764 53.8443 4.74887 53.7115L6.26781 52.1799C6.33633 52.0895 6.38149 51.9822 6.39895 51.8681C6.4164 51.7541 6.40556 51.6372 6.36746 51.5289C6.29212 51.3017 6.12443 51.2251 5.99562 51.3579L4.47668 52.8895C4.40816 52.9794 4.36297 53.0863 4.34551 53.2C4.32805 53.3136 4.33891 53.43 4.37704 53.538H4.37461Z" fill="white"/>
</g>
<g opacity="0.3">
<path d="M7.71143 50.1862C7.7892 50.4134 7.95446 50.49 8.08569 50.3572L9.60464 48.8256C9.67294 48.7356 9.71799 48.6287 9.73545 48.5151C9.7529 48.4015 9.74217 48.2851 9.70428 48.1772C9.62894 47.9474 9.46125 47.8708 9.32758 48.001L7.81107 49.5327C7.74277 49.6226 7.69771 49.7296 7.68026 49.8432C7.6628 49.9567 7.67354 50.0731 7.71143 50.1811V50.1862Z" fill="white"/>
</g>
<path d="M7.04794 50.0637C6.79276 50.0637 6.58618 50.4237 6.58618 50.8653C6.58618 51.3069 6.79276 51.6643 7.04794 51.6643C7.30312 51.6643 7.50727 51.3069 7.50727 50.8653C7.50727 50.4237 7.29097 50.0637 7.04794 50.0637Z" fill="#263238"/>
<path d="M48.6475 60.9998C48.6475 60.9998 52.0718 60.9998 53.5081 60.9692C55.2093 60.9283 56.9518 60.2544 58.2496 58.1611C60.5973 54.3727 60.5973 48.2333 58.2496 44.4449C57.0758 42.5533 54.8156 41.6062 53.2772 41.6062H48.6912C46.3436 45.392 46.2998 57.214 48.6475 60.9998Z" fill="#263238"/>
<path d="M48.6912 61.0023C52.0105 61.0023 54.7013 56.6604 54.7013 51.3043C54.7013 45.9482 52.0105 41.6062 48.6912 41.6062C45.3719 41.6062 42.681 45.9482 42.681 51.3043C42.681 56.6604 45.3719 61.0023 48.6912 61.0023Z" fill="#263238"/>
<path opacity="0.4" d="M48.6912 57.2498C50.726 57.2498 52.3755 54.5879 52.3755 51.3044C52.3755 48.0208 50.726 45.3589 48.6912 45.3589C46.6564 45.3589 45.0068 48.0208 45.0068 51.3044C45.0068 54.5879 46.6564 57.2498 48.6912 57.2498Z" fill="white"/>
<g opacity="0.3">
<path d="M48.3972 46.4284V49.4765C48.3972 49.7318 48.5285 49.9513 48.6913 49.9513C48.8541 49.9513 48.9854 49.7394 48.9854 49.4765V46.4284C48.9854 46.1732 48.8541 45.9536 48.6913 45.9536C48.5285 45.9536 48.3972 46.168 48.3972 46.4284Z" fill="white"/>
</g>
<g opacity="0.3">
<path d="M48.3972 53.1272V56.1752C48.3972 56.4305 48.5285 56.65 48.6913 56.65C48.8541 56.65 48.9854 56.4381 48.9854 56.1752V53.1272C48.9854 52.8719 48.8541 52.6523 48.6913 52.6523C48.5285 52.6523 48.3972 52.8668 48.3972 53.1272Z" fill="white"/>
</g>
<g opacity="0.3">
<path d="M47.5684 50.8041C47.7093 50.9318 47.8867 50.8526 47.9669 50.6254C48.0074 50.5174 48.0188 50.3998 48 50.2855C47.9811 50.1711 47.9327 50.0644 47.86 49.977L46.2244 48.4453C46.0834 48.3126 45.9036 48.3917 45.8234 48.6189C45.7824 48.7268 45.7707 48.8446 45.7895 48.959C45.8084 49.0735 45.8572 49.1802 45.9303 49.2673L47.5659 50.799L47.5684 50.8041Z" fill="white"/>
</g>
<g opacity="0.3">
<path d="M51.5639 53.9644C51.6044 53.8568 51.6159 53.7396 51.597 53.6256C51.5781 53.5116 51.5297 53.4054 51.457 53.3185L49.8214 51.7868C49.6804 51.6541 49.4981 51.7307 49.4179 51.9579C49.3767 52.0661 49.3649 52.1843 49.3837 52.2992C49.4026 52.4141 49.4515 52.5213 49.5249 52.6088L51.1605 54.1405C51.3014 54.2707 51.4813 54.1916 51.5639 53.9644Z" fill="white"/>
</g>
<g opacity="0.3">
<path d="M45.8211 53.9772C45.9037 54.2044 46.0836 54.2835 46.2245 54.1508L47.8601 52.6191C47.9328 52.5312 47.9812 52.424 48 52.3093C48.0189 52.1945 48.0075 52.0766 47.9671 51.9681C47.8844 51.7409 47.7046 51.6644 47.5636 51.7946L45.928 53.3262C45.8546 53.4132 45.8057 53.5199 45.7868 53.6345C45.7679 53.749 45.7798 53.8668 45.8211 53.9746V53.9772Z" fill="white"/>
</g>
<g opacity="0.3">
<path d="M49.4178 50.6304C49.5004 50.8576 49.6803 50.9317 49.8212 50.8015L51.4568 49.2698C51.5302 49.1828 51.5791 49.0761 51.598 48.9616C51.6169 48.847 51.605 48.7292 51.5637 48.6214C51.4811 48.3942 51.3013 48.315 51.1603 48.4478L49.5247 49.9795C49.4513 50.0664 49.4024 50.1732 49.3835 50.2877C49.3646 50.4022 49.3765 50.52 49.4178 50.6279V50.6304Z" fill="white"/>
</g>
<path d="M48.6911 50.5027C48.4165 50.5027 48.2051 50.8601 48.2051 51.3017C48.2051 51.7433 48.4262 52.1007 48.6911 52.1007C48.956 52.1007 49.1772 51.7433 49.1772 51.3017C49.1772 50.8601 48.9658 50.5027 48.6911 50.5027Z" fill="#263238"/>
<path d="M86.2566 60.9998C86.2566 60.9998 89.6833 60.9998 91.1172 60.9692C92.8184 60.9283 94.5609 60.2544 95.8587 58.1611C98.2064 54.3727 98.2064 48.2333 95.8587 44.4449C94.6849 42.5533 92.4271 41.6062 90.8887 41.6062H86.3003C83.9551 45.392 83.9089 57.214 86.2566 60.9998Z" fill="#263238"/>
<path d="M86.3026 61.0023C89.6219 61.0023 92.3128 56.6604 92.3128 51.3043C92.3128 45.9482 89.6219 41.6062 86.3026 41.6062C82.9833 41.6062 80.2925 45.9482 80.2925 51.3043C80.2925 56.6604 82.9833 61.0023 86.3026 61.0023Z" fill="#263238"/>
<path opacity="0.3" d="M86.3026 61.0023C89.6219 61.0023 92.3128 56.6604 92.3128 51.3043C92.3128 45.9482 89.6219 41.6062 86.3026 41.6062C82.9833 41.6062 80.2925 45.9482 80.2925 51.3043C80.2925 56.6604 82.9833 61.0023 86.3026 61.0023Z" fill="#263238"/>
<path opacity="0.4" d="M86.3026 57.2498C88.3374 57.2498 89.987 54.5879 89.987 51.3044C89.987 48.0208 88.3374 45.3589 86.3026 45.3589C84.2678 45.3589 82.6183 48.0208 82.6183 51.3044C82.6183 54.5879 84.2678 57.2498 86.3026 57.2498Z" fill="white"/>
<g opacity="0.3">
<path d="M86.0062 46.4284V49.4765C86.0062 49.7318 86.1399 49.9513 86.3003 49.9513C86.4631 49.9513 86.5944 49.7394 86.5944 49.4765V46.4284C86.5944 46.1732 86.4631 45.9536 86.3003 45.9536C86.1399 45.9536 86.0062 46.168 86.0062 46.4284Z" fill="white"/>
</g>
<g opacity="0.3">
<path d="M86.0062 53.1272V56.1752C86.0062 56.4305 86.1399 56.65 86.3003 56.65C86.4631 56.65 86.5944 56.4381 86.5944 56.1752V53.1272C86.5944 52.8719 86.4631 52.6523 86.3003 52.6523C86.1399 52.6523 86.0062 52.8668 86.0062 53.1272Z" fill="white"/>
</g>
<g opacity="0.3">
<path d="M85.1774 50.8041C85.3184 50.9318 85.4958 50.8526 85.576 50.6254C85.6173 50.5176 85.6292 50.3998 85.6103 50.2853C85.5914 50.1707 85.5425 50.064 85.4691 49.977L83.8335 48.4453C83.6925 48.3126 83.5127 48.3917 83.4301 48.6189C83.3899 48.7272 83.3789 48.8449 83.3982 48.9593C83.4174 49.0736 83.4663 49.1802 83.5394 49.2673L85.1726 50.799L85.1774 50.8041Z" fill="white"/>
</g>
<g opacity="0.3">
<path d="M89.1729 53.9644C89.2131 53.8566 89.2242 53.7392 89.2049 53.6252C89.1856 53.5113 89.1367 53.4051 89.0635 53.3185L87.4279 51.7868C87.287 51.6541 87.1071 51.7307 87.0245 51.9579C86.9833 52.0661 86.9714 52.1843 86.9903 52.2992C87.0092 52.4141 87.058 52.5213 87.1314 52.6088L88.767 54.1405C88.9104 54.2707 89.0927 54.1916 89.1729 53.9644Z" fill="white"/>
</g>
<g opacity="0.3">
<path d="M83.4301 53.9772C83.5127 54.2044 83.6925 54.2835 83.8335 54.1508L85.4691 52.6191C85.5422 52.5315 85.5909 52.4243 85.6098 52.3094C85.6287 52.1946 85.617 52.0765 85.576 51.9681C85.4934 51.7409 85.3136 51.6644 85.1726 51.7946L83.5394 53.3262C83.4672 53.4139 83.4191 53.5206 83.4003 53.6348C83.3814 53.7491 83.3926 53.8666 83.4325 53.9746L83.4301 53.9772Z" fill="white"/>
</g>
<g opacity="0.3">
<path d="M87.0293 50.6304C87.1095 50.8576 87.2918 50.9317 87.4303 50.8015L89.0659 49.2698C89.1394 49.1828 89.1883 49.0761 89.2072 48.9616C89.226 48.847 89.2142 48.7292 89.1729 48.6214C89.0927 48.3942 88.9104 48.315 88.7694 48.4478L87.1338 49.9795C87.0604 50.0664 87.0115 50.1732 86.9926 50.2877C86.9737 50.4022 86.9856 50.52 87.0269 50.6279L87.0293 50.6304Z" fill="white"/>
</g>
<path d="M86.3003 50.5027C86.0281 50.5027 85.8142 50.8601 85.8142 51.3017C85.8142 51.7433 86.0354 52.1007 86.3003 52.1007C86.5652 52.1007 86.7863 51.7433 86.7863 51.3017C86.7863 50.8601 86.5749 50.5027 86.3003 50.5027Z" fill="#263238"/>
<path d="M0.272101 38.6982C0.787326 35.8186 1.64765 31.124 2.07782 30.5828C2.50798 30.0416 4.75116 29.8604 4.75116 29.8604C7.06238 27.1519 14.4554 22.5466 18.2272 20.5733C21.999 18.6 24.9422 18.1226 39.2955 17.2189C53.6489 16.3152 62.1599 18.4826 62.1599 18.4826C69.4678 19.2969 81.5877 30.2254 81.5877 30.2254C85.7217 31.042 89.6459 32.7633 93.105 35.2774C93.105 35.2774 96.8015 35.8186 98.4346 37.7153C99.4109 38.8482 100.04 40.2634 100.24 41.7768C100.526 41.7871 100.806 41.8658 101.059 42.0069C101.312 42.148 101.53 42.3479 101.699 42.5912C102.214 43.403 101.956 49.0013 101.699 51.7991C101.624 52.6153 101.377 53.4038 100.976 54.107C100.574 54.8101 100.028 55.4101 99.3776 55.8632L57.6468 55.5951C57.4368 55.5935 57.2292 55.5482 57.0359 55.4621C56.8426 55.3759 56.6674 55.2504 56.5204 55.0929C56.3734 54.9354 56.2575 54.749 56.1793 54.5443C56.101 54.3395 56.0621 54.1206 56.0647 53.9001C56.0938 49.9764 55.4328 40.5643 48.3679 40.5643C48.3679 40.5643 43.4854 40.623 42.698 47.6381C42.0248 53.6524 42.2994 55.1943 42.3918 55.5109L13.4225 55.8632L13.2524 55.8249C13.352 53.9154 14.1006 44.904 9.74058 41.6135C8.4355 40.6306 6.18261 40.5158 4.82407 41.4169C3.46552 42.318 1.85423 44.1994 1.48969 48.0235C1.32795 49.549 1.2865 51.0859 1.36574 52.6186L0.272101 51.9727C0.0995492 50.898 -0.243124 41.5981 0.272101 38.6982Z" fill="#0E53FF"/>
<path d="M96.2402 40.8404C96.4541 41.1365 98.5271 44.2024 98.5271 44.2024C99.0618 44.5011 96.8089 46.2447 96.8089 45.9537H79.0677L74.2654 44.2331C74.4306 43.8119 76.2874 41.0625 77.8501 40.8404C79.4128 40.6183 96.2402 40.8404 96.2402 40.8404Z" fill="#263238"/>
<path d="M24.7114 30.0984C24.7114 30.0984 22.9932 31.3288 22.9106 33.0009C22.8279 34.673 23.2873 43.0768 23.3359 44.8867C23.4185 47.9935 23.8171 53.505 23.8171 53.505" stroke="#263238" stroke-width="0.164062" stroke-linecap="round" stroke-linejoin="round"/>
<path d="M43.7456 30.7415C43.026 31.0304 42.386 31.5026 41.8833 32.1158C41.3806 32.729 41.0309 33.4638 40.8657 34.2542C40.4258 36.3755 40.9726 54.1404 40.8292 54.2349L14.3996 53.1066L13.9379 48.9098C12.3703 41.1544 8.87554 40.2303 8.5353 39.3266C8.19506 38.4229 7.76732 31.1576 7.85238 30.2565C7.93744 29.3553 11.2402 27.0655 11.5367 26.7285" stroke="#263238" stroke-width="0.164062" stroke-linecap="round" stroke-linejoin="round"/>
<path d="M79.0506 29.9604H47.4566C47.4566 29.9604 39.4026 22.0314 37.0743 19.5118C39.9907 19.0548 57.1365 18.723 62.4006 19.5118C62.4006 19.5118 71.4316 21.2171 79.0506 29.9604Z" fill="#C1ECFB"/>
<path d="M43.8331 29.9604C43.8331 29.9604 35.451 21.0256 33.7255 20.2598C31.9999 19.494 26.2085 19.9381 23.8657 20.2598C21.5229 20.5814 13.0144 24.4617 11.5367 26.7286C11.5367 26.7286 12.8953 28.7963 15.2989 29.4422C17.7024 30.0881 17.0876 29.6388 22.1402 29.9528C27.1928 30.2668 43.8331 30.7952 43.8331 30.7952V29.9604Z" fill="#CBF1FF"/>
<path d="M93.1051 35.1963C93.1051 35.1963 96.5877 38.0044 96.2329 40.8405" stroke="#263238" stroke-width="0.164062" stroke-linecap="round" stroke-linejoin="round"/>
<path opacity="0.7" d="M100.241 41.6982C100.036 41.9943 99.876 43.6485 98.3983 43.6613L96.8016 41.5859C96.8016 41.5859 97.5307 38.3719 97.0714 36.5466C97.0714 36.5466 98.5101 37.4937 99.0351 38.4383C99.56 39.3828 100.241 41.6982 100.241 41.6982Z" fill="white"/>
<path opacity="0.3" d="M59.5256 36.0362C59.5256 36.0362 57.0369 33.4196 47.8115 31.4259L43.8331 30.803C43.1356 30.8515 42.4211 31.4029 41.6944 32.2581C38.7148 32.8682 19.4425 31.2114 19.4425 31.2114C19.4425 31.2114 39.1839 32.8273 45.1187 33.2409C51.0535 33.6545 50.9028 33.6774 59.5256 36.0362Z" fill="#263238"/>
<path d="M1.74256 31.4666C2.92631 31.6027 4.09969 31.8244 5.25436 32.1303C5.25436 32.1303 2.52755 35.3391 1.61862 35.4949L0.889526 35.3494C0.889526 35.3494 1.0159 31.8852 1.74256 31.4666Z" fill="#FFC107"/>
<path d="M60.5487 37.3482C60.5487 37.3482 60.9278 36.5109 59.2218 35.9136C57.5157 35.3162 48.8492 33.3761 48.3632 32.4826C47.8771 31.5891 47.4542 29.9604 47.4542 29.9604" stroke="#263238" stroke-width="0.164062" stroke-linecap="round" stroke-linejoin="round"/>
<path opacity="0.3" d="M39.8887 52.2719C39.8887 52.2719 15.8286 51.917 15.5127 51.432C15.1967 50.947 17.2746 49.4817 17.2746 49.4817C17.5809 49.257 39.7355 50.8602 39.8887 52.2719Z" fill="white"/>
<path d="M88.6601 42.03C89.9258 42.03 90.9518 41.5705 90.9518 41.0038C90.9518 40.437 89.9258 39.9775 88.6601 39.9775C87.3943 39.9775 86.3683 40.437 86.3683 41.0038C86.3683 41.5705 87.3943 42.03 88.6601 42.03Z" fill="#FFC107"/>
<path d="M97.5161 51.2073C97.5161 51.2073 99.385 52.1263 99.3121 52.1288C99.2392 52.1314 98.8746 54.1277 98.8746 54.1277L70.1727 53.7116L67.4678 51.3043L76.0856 51.1792L97.5161 51.2073Z" fill="#263238"/>
<path d="M60.24 51.3018C60.3275 51.4575 62.9449 51.3018 62.9449 51.3018L65.5915 53.6503L61.703 53.5559L60.24 51.3018Z" fill="#263238"/>
<path d="M77.8062 41.0038L74.6711 40.6592" stroke="#263238" stroke-width="0.164062" stroke-linecap="round" stroke-linejoin="round"/>
<path opacity="0.7" d="M74.6712 40.4855C74.6712 40.4855 59.2533 36.8478 58.0624 36.9729C56.8716 37.098 53.5737 38.1114 53.8143 39.0509C54.0549 39.9903 56.5727 41.4275 59.9168 41.9917C62.5901 42.441 66.9063 42.9949 69.7741 43.1838C70.7503 43.2707 71.7297 43.063 72.5973 42.5849C73.4648 42.1069 74.1844 41.3785 74.6712 40.4855Z" fill="white"/>
<path opacity="0.3" d="M73.9809 47.2965C73.9809 47.2965 68.1093 44.2868 65.8418 44.2868C63.5744 44.2868 53.4473 41.1672 53.4473 41.1672C53.4473 41.1672 61.025 46.2014 62.7019 46.6124C64.3788 47.0234 73.9809 47.2965 73.9809 47.2965Z" fill="#C8C8C8"/>
<path opacity="0.3" d="M77.2595 29.2533C77.2595 29.2533 68.7243 21.115 61.5986 20.3568C54.473 19.5986 50.028 19.8156 50.028 19.8156C50.028 19.8156 52.1447 25.516 56.0551 26.6444C59.9655 27.7727 77.2595 29.2533 77.2595 29.2533Z" fill="white"/>
<path opacity="0.3" d="M101.407 43.1968C101.407 43.1968 101.609 44.805 101.237 45.5479C100.865 46.2908 97.4261 47.2787 97.4261 47.2787L101.407 43.1968Z" fill="#263238"/>
<path opacity="0.3" d="M79.6242 30.4148C79.6242 30.4148 92.4052 32.6128 94.6921 39.2373C94.6921 39.2373 61.8368 30.6523 61.9777 30.4148C62.1187 30.1774 79.6242 30.4148 79.6242 30.4148Z" fill="white"/>
<path d="M43.8331 29.9604C43.8331 29.9604 35.451 21.0256 33.7255 20.2598C31.9999 19.494 26.2085 19.9381 23.8657 20.2598C21.5229 20.5814 13.0144 24.4617 11.5367 26.7286C11.5367 26.7286 12.8953 28.7963 15.2989 29.4422C17.7024 30.0881 17.0876 29.6388 22.1402 29.9528C27.1928 30.2668 43.8331 30.7952 43.8331 30.7952V29.9604Z" stroke="#263238" stroke-width="0.164062" stroke-miterlimit="10"/>
<path opacity="0.3" d="M28.1446 34.7936L25.0871 34.5397C24.7968 34.5156 24.5428 34.7433 24.5198 35.0483L24.4785 35.598C24.4555 35.903 24.6723 36.1698 24.9626 36.1939L28.0202 36.4478C28.3105 36.4719 28.5645 36.2442 28.5875 35.9392L28.6288 35.3895C28.6518 35.0845 28.435 34.8177 28.1446 34.7936Z" fill="#C0C0C0"/>
<path opacity="0.3" d="M13.3879 33.1381L10.3304 32.8842C10.0401 32.8601 9.78608 33.0878 9.76313 33.3928L9.72176 33.9425C9.6988 34.2475 9.91558 34.5143 10.2059 34.5384L13.2634 34.7923C13.5538 34.8164 13.8078 34.5887 13.8307 34.2837L13.8721 33.734C13.8951 33.429 13.6783 33.1622 13.3879 33.1381Z" fill="#C0C0C0"/>
<path d="M25.7904 20.0378C25.6325 20.0633 23.817 30.0984 23.817 30.0984H26.4661L27.6958 19.8872C27.6958 19.8872 25.9484 20.0225 25.7904 20.0378Z" fill="#CBF1FF"/>
<path d="M41.0236 27.0247L39.5995 30.5909L43.8331 30.8028V29.8863L41.0236 27.0247Z" fill="#263238"/>
<path d="M34.9527 28.1173L35.0208 28.0203C35.5725 27.2212 38.0271 26.2052 40.3675 27.04C42.0833 27.6476 41.7746 29.7638 41.4805 30.8692C41.4128 31.1274 41.2749 31.3594 41.0837 31.5367C40.8925 31.7139 40.6563 31.8288 40.4039 31.8673C38.9968 32.0818 36.4012 31.8673 35.7402 31.5074L35.6332 31.4487C35.3654 31.2912 35.1326 31.0756 34.9504 30.8162C34.7681 30.5569 34.6405 30.2597 34.5762 29.9445C34.5118 29.6293 34.5121 29.3033 34.577 28.9883C34.6419 28.6732 34.77 28.3763 34.9527 28.1173Z" fill="#0E53FF" stroke="#263238" stroke-width="0.164062" stroke-linecap="round" stroke-linejoin="round"/>
<path opacity="0.3" d="M40.6663 27.6936C40.1904 27.3691 39.6369 27.1921 39.0696 27.1831C38.0488 27.1269 35.3779 27.3414 35.011 28.9241C34.644 30.5068 41.9446 28.1838 40.6663 27.6936Z" fill="#1549C3"/>
</g>
<path d="M23.0369 32.25H20.8702V27.8334H23.0369V32.25Z" fill="#ABABAB"/>
<path d="M29.0369 27.8333H31.2035V32.2499H29.0369V27.8333Z" fill="#ABABAB"/>
<path d="M29.0369 27.8333H31.2035V29.3333H29.0369V27.8333Z" fill="#9B9B9B"/>
<path d="M20.8701 27.8333H23.0368V29.3333H20.8701V27.8333Z" fill="#9B9B9B"/>
<path d="M34.5003 62.4166H17.5732C15.8042 62.4166 14.3701 60.9825 14.3701 59.2135V35.4531C14.3701 33.6841 15.8042 32.25 17.5732 32.25H34.5003C36.2693 32.25 37.7034 33.6841 37.7034 35.4531V59.2135C37.7034 60.9825 36.2694 62.4166 34.5003 62.4166Z" fill="url(#paint0_linear_205_149)"/>
<path d="M34.5004 32.25H32.7035C34.5444 32.25 36.0368 33.7424 36.0368 35.5833V59.0833C36.0368 60.9242 34.5444 62.4166 32.7035 62.4166H34.5004C36.2694 62.4166 37.7035 60.9825 37.7035 59.2135V35.4531C37.7035 33.684 36.2695 32.25 34.5004 32.25Z" fill="#FFE800"/>
<path d="M35.2034 58.5C32.8185 58.5 30.8195 60.1789 30.323 62.4167H34.4036C36.226 62.4167 37.7034 60.9393 37.7034 59.1169V58.5001H35.2034V58.5Z" fill="#D39E00"/>
<path d="M16.8702 58.5C19.2552 58.5 21.2542 60.1789 21.7506 62.4167H17.7036C15.8627 62.4167 14.3702 60.9243 14.3702 59.0834V58.5H16.8702Z" fill="#D39E00"/>
<path d="M35.2035 66.0001C36.5843 66.0001 37.7036 64.8808 37.7036 63.5C37.7036 62.1193 36.5843 61 35.2035 61C33.8228 61 32.7035 62.1193 32.7035 63.5C32.7035 64.8808 33.8228 66.0001 35.2035 66.0001Z" fill="#676767"/>
<path d="M16.8702 66.0001C18.2509 66.0001 19.3702 64.8808 19.3702 63.5C19.3702 62.1193 18.2509 61 16.8702 61C15.4894 61 14.3701 62.1193 14.3701 63.5C14.3701 64.8808 15.4894 66.0001 16.8702 66.0001Z" fill="#676767"/>
<path d="M19.0857 56.6668H18.988C18.3247 56.6668 17.7869 56.1289 17.7869 55.4656V36.8679C17.7869 36.2046 18.3247 35.6667 18.988 35.6667H19.0857C19.7491 35.6667 20.2869 36.2046 20.2869 36.8679V55.4656C20.2869 56.1289 19.7491 56.6668 19.0857 56.6668Z" fill="#FFEA00"/>
<path d="M23.7524 56.6668H23.6547C22.9913 56.6668 22.4535 56.1289 22.4535 55.4656V36.8679C22.4535 36.2046 22.9913 35.6667 23.6547 35.6667H23.7524C24.4157 35.6667 24.9535 36.2046 24.9535 36.8679V55.4656C24.9535 56.1289 24.4157 56.6668 23.7524 56.6668Z" fill="#FFEA00"/>
<path d="M28.419 56.6668H28.3213C27.6579 56.6668 27.1201 56.1289 27.1201 55.4656V36.8679C27.1201 36.2046 27.6579 35.6667 28.3213 35.6667H28.419C29.0824 35.6667 29.6202 36.2046 29.6202 36.8679V55.4656C29.6202 56.1289 29.0824 56.6668 28.419 56.6668Z" fill="#FFEA00"/>
<path d="M33.0857 56.6668H32.988C32.3247 56.6668 31.7869 56.1289 31.7869 55.4656V36.8679C31.7869 36.2046 32.3247 35.6667 32.988 35.6667H33.0857C33.7491 35.6667 34.2869 36.2046 34.2869 36.8679V55.4656C34.2869 56.1289 33.7491 56.6668 33.0857 56.6668Z" fill="#FFEA00"/>
<path d="M31.9027 27.8333H20.1709C19.7286 27.8333 19.3701 27.4748 19.3701 27.0325V25.8008C19.3701 25.3585 19.7286 25 20.1709 25H31.9027C32.3449 25 32.7034 25.3585 32.7034 25.8008V27.0325C32.7034 27.4748 32.3449 27.8333 31.9027 27.8333Z" fill="#555555"/>
<path d="M35.2035 64.3333C35.6638 64.3333 36.0369 63.9601 36.0369 63.4999C36.0369 63.0396 35.6638 62.6665 35.2035 62.6665C34.7432 62.6665 34.3701 63.0396 34.3701 63.4999C34.3701 63.9601 34.7432 64.3333 35.2035 64.3333Z" fill="#434343"/>
<path d="M16.8701 64.3333C17.3304 64.3333 17.7035 63.9601 17.7035 63.4999C17.7035 63.0396 17.3304 62.6665 16.8701 62.6665C16.4099 62.6665 16.0367 63.0396 16.0367 63.4999C16.0367 63.9601 16.4099 64.3333 16.8701 64.3333Z" fill="#434343"/>
<path d="M16 66.5195C16 65.9865 21.2654 66.0005 27.5343 66.0005C33.8032 66.0005 37.0752 65.9663 36.998 66.443C36.9497 66.7435 33.632 66.8145 27.3638 66.8145C21.0956 66.8145 16.0007 66.8591 16 66.5195Z" fill="#A2A2A2"/>
<defs>
<linearGradient id="paint0_linear_205_149" x1="26.0368" y1="32.25" x2="26.0368" y2="62.4166" gradientUnits="userSpaceOnUse">
<stop stop-color="#FFEA00"/>
<stop offset="1" stop-color="#FFC107"/>
</linearGradient>
<clipPath id="clip0_205_149">
<rect width="102" height="44" fill="white" transform="translate(0 17)"/>
</clipPath>
</defs>
</svg>
